<?xml version="1.0" encoding="UTF-8" standalone="no"?>
<!-- Created with Inkscape (http://www.inkscape.org/) -->

<svg
   xmlns:dc="http://purl.org/dc/elements/1.1/"
   xmlns:cc="http://creativecommons.org/ns#"
   xmlns:rdf="http://www.w3.org/1999/02/22-rdf-syntax-ns#"
   xmlns:svg="http://www.w3.org/2000/svg"
   xmlns="http://www.w3.org/2000/svg"
   xmlns:sodipodi="http://sodipodi.sourceforge.net/DTD/sodipodi-0.dtd"
   xmlns:inkscape="http://www.inkscape.org/namespaces/inkscape"
   width="100"
   height="100"
   id="svg3879"
   version="1.1"
   inkscape:version="0.48.4 r9939"
   sodipodi:docname="elktank.svg">
  <defs
     id="defs3881" />
  <sodipodi:namedview
     id="base"
     pagecolor="#ffffff"
     bordercolor="#666666"
     borderopacity="1.0"
     inkscape:pageopacity="0.0"
     inkscape:pageshadow="2"
     inkscape:zoom="3.8890873"
     inkscape:cx="-46.083261"
     inkscape:cy="35.238397"
     inkscape:current-layer="layer1"
     showgrid="true"
     inkscape:document-units="px"
     inkscape:grid-bbox="true"
     inkscape:window-width="1301"
     inkscape:window-height="744"
     inkscape:window-x="65"
     inkscape:window-y="24"
     inkscape:window-maximized="1" />
  <metadata
     id="metadata3884">
    <rdf:RDF>
      <cc:Work
         rdf:about="">
        <dc:format>image/svg+xml</dc:format>
        <dc:type
           rdf:resource="http://purl.org/dc/dcmitype/StillImage" />
        <dc:title />
      </cc:Work>
    </rdf:RDF>
  </metadata>
  <g
     id="layer1"
     inkscape:label="Layer 1"
     inkscape:groupmode="layer"
     transform="translate(0,36)">
    <g
       id="g4589"
       transform="matrix(-0.58111101,0,0,0.58111101,50.931954,-9.035114)"
       style="stroke:#000000;stroke-width:1.72084159999999997;stroke-miterlimit:4;stroke-opacity:1;stroke-dasharray:none">
      <path
         inkscape:connector-curvature="0"
         id="path4473"
         d="m -19.460292,43.231162 c -1.78272,0 -58.47332,2.85235 -58.47332,2.85235 l 0,6.77435 52.05552,1.06964 0,0"
         style="fill:#ffffff;fill-opacity:1;stroke:#000000;stroke-width:1.72084159999999997;stroke-linecap:butt;stroke-linejoin:miter;stroke-miterlimit:4;stroke-opacity:1;stroke-dasharray:none" />
      <path
         inkscape:connector-curvature="0"
         id="path4469"
         d="m -29.800082,62.841112 -0.35655,-8.55707 21.3926796,-26.02776 25.3146704,-5.70471 32.8021,10.69634 3.2089,4.63508"
         style="fill:#ffffff;fill-opacity:1;stroke:#000000;stroke-width:1.72084159999999997;stroke-linecap:butt;stroke-linejoin:miter;stroke-miterlimit:4;stroke-opacity:1;stroke-dasharray:none" />
      <path
         inkscape:connector-curvature="0"
         id="path4471"
         d="m -7.3377724,41.448432 c 0,0 6.77435002,-10.69634 1.42618,-16.40105 -5.3481696,-5.70471 -15.6879696,7.13089 -15.6879696,7.13089 l -4.27853,-4.27853 c 0,0 10.33979,-4.63508 7.84398,-11.40943 -2.49581,-6.7743495 -19.9665,1.06963 -19.9665,1.06963 l 0.35654,-7.48743 c 0,0 3.56545,7.48743 10.69634,-1.0696395 7.1309,-8.55707005 -1.06963,-12.47906 -1.06963,-12.47906 l 3.56545,-3.56545 c 0,0 13.19215,16.04451 18.1837696,2.49582 4.99163,-13.5487005 -2.85236,-18.1837805 -2.85236,-18.1837805 l 8.91362002,-0.71309 c 0,0 -2.85236002,9.27016 4.27853998,9.98325 7.1308904,0.71309 12.4790604,-0.35654 12.4790604,-0.35654 l 1.78272,7.1308905 c 0,0 -6.77435,-2.13927 -7.13089,3.2089 -0.35655,5.34817 7.48744,7.13089 7.48744,7.13089 l -4.27854,4.27854 c 0,0 -9.9832504,-3.56545 -15.6879604,4.6350795 -5.70472,8.20052 2.13926002,19.25341 9.6267,20.67959 7.4874404,1.42618 -17.11414,16.40105 -15.68796,8.20052 z"
         style="fill:#ffffff;fill-opacity:1;stroke:#000000;stroke-width:1.72084159999999997;stroke-linecap:butt;stroke-linejoin:miter;stroke-miterlimit:4;stroke-opacity:1;stroke-dasharray:none" />
      <path
         inkscape:connector-curvature="0"
         id="path4467"
         d="m -49.410042,79.598712 7.48744,-11.76597 94.84087,-30.66284 23.1754,6.77435 0,0"
         style="fill:#ffffff;fill-opacity:1;stroke:#000000;stroke-width:1.72084159999999997;stroke-linecap:butt;stroke-linejoin:miter;stroke-miterlimit:4;stroke-opacity:1;stroke-dasharray:none" />
      <path
         inkscape:connector-curvature="0"
         id="path4475"
         d="m -38.000612,80.311802 4.27853,-12.47906 c 0,0 21.74923,-1.42618 24.6015796,-6.77435 2.85236,-5.34817 9.27016002,3.2089 17.11415,-1.42618 7.8439804,-4.63508 9.2701604,-2.85236 26.0277504,-7.84398 16.7576,-4.99163 9.98325,-12.47906 25.31467,-7.13089 15.33142,5.34816 18.18378,5.70471 18.54032,16.0445 0.35655,10.3398 -1.06963,11.40943 -1.06963,11.40943 0,0 -10.69634,10.69634 -12.12252,10.3398 -1.42618,-0.35655 -91.63197,4.27853 -91.63197,4.27853 z"
         style="fill:#ffffff;fill-opacity:1;stroke:#000000;stroke-width:1.72084159999999997;stroke-linecap:butt;stroke-linejoin:miter;stroke-miterlimit:4;stroke-opacity:1;stroke-dasharray:none" />
      <path
         transform="translate(-337.14155,-374.12504)"
         d="m 311.62,445.16669 c 0,2.36297 -2.07519,4.27853 -4.63508,4.27853 -2.55988,0 -4.63508,-1.91556 -4.63508,-4.27853 0,-2.36297 2.0752,-4.27854 4.63508,-4.27854 2.55989,0 4.63508,1.91557 4.63508,4.27854 z"
         sodipodi:ry="4.2785354"
         sodipodi:rx="4.6350803"
         sodipodi:cy="445.16669"
         sodipodi:cx="306.98492"
         id="path4477"
         style="fill:#ffffff;fill-opacity:1;stroke:#000000;stroke-width:1.72084159999999997;stroke-miterlimit:4;stroke-opacity:1;stroke-dasharray:none"
         sodipodi:type="arc" />
      <path
         d="m 315.18546,455.50647 c 0,2.36297 -2.31464,4.27854 -5.1699,4.27854 -2.85525,0 -5.16989,-1.91557 -5.16989,-4.27854 0,-2.36297 2.31464,-4.27854 5.16989,-4.27854 2.85526,0 5.1699,1.91557 5.1699,4.27854 z"
         sodipodi:ry="4.2785354"
         sodipodi:rx="5.1698971"
         sodipodi:cy="455.50647"
         sodipodi:cx="310.01556"
         id="path4479"
         style="fill:#ffffff;fill-opacity:1;stroke:#000000;stroke-width:1.72084159999999997;stroke-miterlimit:4;stroke-opacity:1;stroke-dasharray:none"
         sodipodi:type="arc"
         transform="translate(-336.07192,-372.34232)" />
      <path
         d="m 337.29121,437.14444 c 0,3.24908 -2.47427,5.88299 -5.52644,5.88299 -3.05217,0 -5.52644,-2.63391 -5.52644,-5.88299 0,-3.24908 2.47427,-5.88299 5.52644,-5.88299 3.05217,0 5.52644,2.63391 5.52644,5.88299 z"
         sodipodi:ry="5.8829865"
         sodipodi:rx="5.5264416"
         sodipodi:cy="437.14444"
         sodipodi:cx="331.76477"
         id="path4481"
         style="fill:#ffffff;fill-opacity:1;stroke:#000000;stroke-width:1.72084159999999997;stroke-miterlimit:4;stroke-opacity:1;stroke-dasharray:none"
         sodipodi:type="arc"
         transform="translate(-336.07192,-372.34232)" />
      <path
         transform="translate(-303.62636,-385.53447)"
         d="m 359.397,433.22244 c 0,2.65834 -2.39446,4.81336 -5.34817,4.81336 -2.95371,0 -5.34817,-2.15502 -5.34817,-4.81336 0,-2.65834 2.39446,-4.81335 5.34817,-4.81335 2.95371,0 5.34817,2.15501 5.34817,4.81335 z"
         sodipodi:ry="4.8133526"
         sodipodi:rx="5.3481693"
         sodipodi:cy="433.22244"
         sodipodi:cx="354.04883"
         id="path4483"
         style="fill:#ffffff;fill-opacity:1;stroke:#000000;stroke-width:1.72084159999999997;stroke-miterlimit:4;stroke-opacity:1;stroke-dasharray:none"
         sodipodi:type="arc" />
      <path
         d="m 413.59178,429.12216 c 0,3.54446 -2.87334,6.41781 -6.4178,6.41781 -3.54445,0 -6.4178,-2.87335 -6.4178,-6.41781 0,-3.54445 2.87335,-6.4178 6.4178,-6.4178 3.54446,0 6.4178,2.87335 6.4178,6.4178 z"
         sodipodi:ry="6.4178033"
         sodipodi:rx="6.4178033"
         sodipodi:cy="429.12216"
         sodipodi:cx="407.17398"
         id="path4485"
         style="fill:#ffffff;fill-opacity:1;stroke:#000000;stroke-width:1.72084159999999997;stroke-miterlimit:4;stroke-opacity:1;stroke-dasharray:none"
         sodipodi:type="arc"
         transform="translate(-336.07192,-372.34232)" />
      <path
         transform="translate(-333.93265,-372.69886)"
         d="m 403.60853,448.01904 c 0,3.74137 -3.35224,6.77435 -7.48744,6.77435 -4.13519,0 -7.48743,-3.03298 -7.48743,-6.77435 0,-3.74137 3.35224,-6.77434 7.48743,-6.77434 4.1352,0 7.48744,3.03297 7.48744,6.77434 z"
         sodipodi:ry="6.7743478"
         sodipodi:rx="7.4874372"
         sodipodi:cy="448.01904"
         sodipodi:cx="396.12109"
         id="path4487"
         style="fill:#ffffff;fill-opacity:1;stroke:#000000;stroke-width:1.72084159999999997;stroke-miterlimit:4;stroke-opacity:1;stroke-dasharray:none"
         sodipodi:type="arc" />
      <path
         transform="translate(-288.29494,-385.53448)"
         d="m 311.62,445.16669 c 0,2.36297 -2.07519,4.27853 -4.63508,4.27853 -2.55988,0 -4.63508,-1.91556 -4.63508,-4.27853 0,-2.36297 2.0752,-4.27854 4.63508,-4.27854 2.55989,0 4.63508,1.91557 4.63508,4.27854 z"
         sodipodi:ry="4.2785354"
         sodipodi:rx="4.6350803"
         sodipodi:cy="445.16669"
         sodipodi:cx="306.98492"
         id="path4477-9"
         style="fill:#ffffff;fill-opacity:1;stroke:#000000;stroke-width:1.72084159999999997;stroke-miterlimit:4;stroke-opacity:1;stroke-dasharray:none"
         sodipodi:type="arc" />
      <path
         transform="translate(-362.45623,-370.5596)"
         d="m 403.60853,448.01904 c 0,3.74137 -3.35224,6.77435 -7.48744,6.77435 -4.13519,0 -7.48743,-3.03298 -7.48743,-6.77435 0,-3.74137 3.35224,-6.77434 7.48743,-6.77434 4.1352,0 7.48744,3.03297 7.48744,6.77434 z"
         sodipodi:ry="6.7743478"
         sodipodi:rx="7.4874372"
         sodipodi:cy="448.01904"
         sodipodi:cx="396.12109"
         id="path4487-3"
         style="fill:#ffffff;fill-opacity:1;stroke:#000000;stroke-width:1.72084159999999997;stroke-miterlimit:4;stroke-opacity:1;stroke-dasharray:none"
         sodipodi:type="arc" />
      <path
         transform="translate(-392.40598,-369.84651)"
         d="m 403.60853,448.01904 c 0,3.74137 -3.35224,6.77435 -7.48744,6.77435 -4.13519,0 -7.48743,-3.03298 -7.48743,-6.77435 0,-3.74137 3.35224,-6.77434 7.48743,-6.77434 4.1352,0 7.48744,3.03297 7.48744,6.77434 z"
         sodipodi:ry="6.7743478"
         sodipodi:rx="7.4874372"
         sodipodi:cy="448.01904"
         sodipodi:cx="396.12109"
         id="path4487-4"
         style="fill:#ffffff;fill-opacity:1;stroke:#000000;stroke-width:1.72084159999999997;stroke-miterlimit:4;stroke-opacity:1;stroke-dasharray:none"
         sodipodi:type="arc" />
    </g>
  </g>
</svg>
