<?xml version="1.0" encoding="UTF-8" standalone="no"?>
<!-- Created with Inkscape (http://www.inkscape.org/) -->

<svg
   xmlns:dc="http://purl.org/dc/elements/1.1/"
   xmlns:cc="http://creativecommons.org/ns#"
   xmlns:rdf="http://www.w3.org/1999/02/22-rdf-syntax-ns#"
   xmlns:svg="http://www.w3.org/2000/svg"
   xmlns="http://www.w3.org/2000/svg"
   xmlns:sodipodi="http://sodipodi.sourceforge.net/DTD/sodipodi-0.dtd"
   xmlns:inkscape="http://www.inkscape.org/namespaces/inkscape"
   width="64px"
   height="64px"
   id="svg3879"
   version="1.1"
   inkscape:version="0.48.4 r9939"
   sodipodi:docname="rabittank.svg">
  <defs
     id="defs3881" />
  <sodipodi:namedview
     id="base"
     pagecolor="#ffffff"
     bordercolor="#666666"
     borderopacity="1.0"
     inkscape:pageopacity="0.0"
     inkscape:pageshadow="2"
     inkscape:zoom="5.5"
     inkscape:cx="0"
     inkscape:cy="32"
     inkscape:current-layer="layer1"
     showgrid="true"
     inkscape:document-units="px"
     inkscape:grid-bbox="true"
     inkscape:window-width="1301"
     inkscape:window-height="744"
     inkscape:window-x="65"
     inkscape:window-y="24"
     inkscape:window-maximized="1" />
  <metadata
     id="metadata3884">
    <rdf:RDF>
      <cc:Work
         rdf:about="">
        <dc:format>image/svg+xml</dc:format>
        <dc:type
           rdf:resource="http://purl.org/dc/dcmitype/StillImage" />
        <dc:title></dc:title>
      </cc:Work>
    </rdf:RDF>
  </metadata>
  <g
     id="layer1"
     inkscape:label="Layer 1"
     inkscape:groupmode="layer">
    <g
       id="g3868"
       transform="matrix(-0.4405559,0,0,0.4405559,117.25399,-80.935132)"
       style="stroke:#666666;stroke-width:2.26985955;stroke-miterlimit:4;stroke-opacity:1;stroke-dasharray:none">
      <path
         inkscape:connector-curvature="0"
         id="path3092"
         d="m 201.44771,264.04201 5.34817,-30.66284 13.19215,-21.39267 10.69634,-9.62671 7.48744,7.84398 c 0,0 2.49581,15.33142 0.71309,16.04451 -1.78273,0.71309 -23.53195,38.50682 -23.53195,38.50682"
         style="fill:#ffffff;fill-opacity:1;stroke:#666666;stroke-width:2.26985955;stroke-linecap:butt;stroke-linejoin:miter;stroke-miterlimit:4;stroke-opacity:1;stroke-dasharray:none" />
      <path
         sodipodi:nodetypes="ccccc"
         inkscape:connector-curvature="0"
         id="path3082"
         d="m 126.42857,263.07647 4.28572,-11.42857 17.49939,2.50419 -4.64345,13.92557 z"
         style="fill:#ffffff;fill-opacity:1;stroke:#666666;stroke-width:2.26985955;stroke-linecap:butt;stroke-linejoin:miter;stroke-miterlimit:4;stroke-opacity:1;stroke-dasharray:none" />
      <path
         inkscape:connector-curvature="0"
         id="path3084"
         d="m 190,273.07647 -45.71429,-8.57143 1.42858,-5 51.42857,7.14286 z"
         style="fill:#ffffff;fill-opacity:1;stroke:#666666;stroke-width:2.26985955;stroke-linecap:butt;stroke-linejoin:miter;stroke-miterlimit:4;stroke-opacity:1;stroke-dasharray:none" />
      <path
         inkscape:connector-curvature="0"
         id="path3090"
         d="m 233.18019,269.03363 -3.2089,-9.6267 -9.98325,-2.85236 -9.98325,4.27854"
         style="fill:#ffffff;fill-opacity:1;stroke:#666666;stroke-width:2.26985955;stroke-linecap:butt;stroke-linejoin:miter;stroke-miterlimit:4;stroke-opacity:1;stroke-dasharray:none" />
      <path
         sodipodi:nodetypes="cccccc"
         inkscape:connector-curvature="0"
         id="path3086"
         d="M 184.29289,275.58185 195,263.79075 l 20,-2.85714 20.71429,10 8.78378,11.27413 z"
         style="fill:#ffffff;fill-opacity:1;stroke:#666666;stroke-width:2.26985955;stroke-linecap:butt;stroke-linejoin:miter;stroke-miterlimit:4;stroke-opacity:1;stroke-dasharray:none" />
      <path
         inkscape:connector-curvature="0"
         id="path3094"
         d="m 238.8849,275.45144 c 0,0 1.06963,-9.62671 5.34817,-9.27016 4.27854,0.35654 13.19215,7.48743 11.05288,10.33979 -2.13926,2.85236 -3.56544,10.69634 -10.33979,5.70472 -6.77435,-4.99163 -6.06126,-6.77435 -6.06126,-6.77435 z"
         style="fill:#ffffff;fill-opacity:1;stroke:#666666;stroke-width:2.26985955;stroke-linecap:butt;stroke-linejoin:miter;stroke-miterlimit:4;stroke-opacity:1;stroke-dasharray:none" />
      <path
         inkscape:connector-curvature="0"
         id="path3098"
         d="m 170.07179,283.29542 7.84398,-8.20053 65.24767,7.48744 16.40105,8.55707 2.49581,6.77435"
         style="fill:#ffffff;fill-opacity:1;stroke:#666666;stroke-width:2.26985955;stroke-linecap:butt;stroke-linejoin:miter;stroke-miterlimit:4;stroke-opacity:1;stroke-dasharray:none" />
      <path
         inkscape:connector-curvature="0"
         id="path3096"
         d="m 177.20268,283.29542 -1.78272,10.33979 23.1754,7.84399 48.49007,1.42617 8.55707,-5.34817 -2.85236,-7.48743 -14.61833,-4.63508 c 0,0 -12.8356,-2.49582 -14.61833,-2.49582 -1.78272,0 -18.54032,-2.49581 -18.54032,-2.49581 l -19.60995,-1.06963 z"
         style="fill:#ffffff;fill-opacity:1;stroke:#666666;stroke-width:2.26985955;stroke-linecap:butt;stroke-linejoin:miter;stroke-miterlimit:4;stroke-opacity:1;stroke-dasharray:none" />
      <path
         inkscape:connector-curvature="0"
         id="path3088"
         d="m 203.58699,263.68547 7.48743,-22.46232 17.82723,-15.33141 12.83561,3.92199 8.20053,13.90524 -5.34817,8.20052 c 0,0 -7.1309,0.35655 -8.55707,0.35655 -1.42618,0 -9.27016,-4.27854 -9.27016,-4.27854 l 2.49581,-7.84398 4.27853,-3.92199 -4.27853,4.27853 -10.3398,23.17541"
         style="fill:#ffffff;fill-opacity:1;stroke:#666666;stroke-width:2.26985955;stroke-linecap:butt;stroke-linejoin:miter;stroke-miterlimit:4;stroke-opacity:1;stroke-dasharray:none" />
    </g>
    <path
       sodipodi:type="arc"
       style="fill:#ffffff;fill-opacity:1;stroke:#666666;stroke-width:0.69388665;stroke-miterlimit:4;stroke-opacity:1;stroke-dasharray:none"
       id="path4459"
       sodipodi:cx="8.545455"
       sodipodi:cy="48.81818"
       sodipodi:rx="1.8181819"
       sodipodi:ry="1.5454545"
       d="m 10.363637,48.81818 a 1.8181819,1.5454545 0 1 1 -3.6363639,0 1.8181819,1.5454545 0 1 1 3.6363639,0 z"
       transform="matrix(1.3286816,0,0,1.5631549,-4.5360069,-26.583107)" />
    <path
       sodipodi:type="arc"
       style="fill:#ffffff;fill-opacity:1;stroke:#666666;stroke-width:1;stroke-miterlimit:4;stroke-opacity:1;stroke-dasharray:none"
       id="path4461"
       sodipodi:cx="28.454546"
       sodipodi:cy="49.363636"
       sodipodi:rx="2.2727273"
       sodipodi:ry="1.9090909"
       d="m 30.727273,49.363636 a 2.2727273,1.9090909 0 1 1 -4.545454,0 2.2727273,1.9090909 0 1 1 4.545454,0 z" />
    <path
       sodipodi:type="arc"
       style="fill:#ffffff;fill-opacity:1;stroke:#666666;stroke-width:1;stroke-miterlimit:4;stroke-opacity:1;stroke-dasharray:none"
       id="path4463"
       sodipodi:cx="36.727272"
       sodipodi:cy="45.545456"
       sodipodi:rx="1.8181819"
       sodipodi:ry="1.9090909"
       d="m 38.545454,45.545456 a 1.8181819,1.9090909 0 1 1 -3.636364,0 1.8181819,1.9090909 0 1 1 3.636364,0 z" />
    <path
       sodipodi:type="arc"
       style="fill:#ffffff;fill-opacity:1;stroke:#666666;stroke-width:1;stroke-miterlimit:4;stroke-opacity:1;stroke-dasharray:none"
       id="path4465"
       sodipodi:cx="18"
       sodipodi:cy="46.18182"
       sodipodi:rx="2.3636363"
       sodipodi:ry="2"
       d="m 20.363636,46.18182 a 2.3636363,2 0 1 1 -4.727272,0 2.3636363,2 0 1 1 4.727272,0 z" />
  </g>
</svg>
