<?xml version="1.0" encoding="UTF-8" standalone="no"?>
<!-- Created with Inkscape (http://www.inkscape.org/) -->

<svg
   xmlns:dc="http://purl.org/dc/elements/1.1/"
   xmlns:cc="http://creativecommons.org/ns#"
   xmlns:rdf="http://www.w3.org/1999/02/22-rdf-syntax-ns#"
   xmlns:svg="http://www.w3.org/2000/svg"
   xmlns="http://www.w3.org/2000/svg"
   xmlns:sodipodi="http://sodipodi.sourceforge.net/DTD/sodipodi-0.dtd"
   xmlns:inkscape="http://www.inkscape.org/namespaces/inkscape"
   width="80"
   height="80"
   id="svg4245"
   version="1.1"
   inkscape:version="0.48.4 r9939"
   sodipodi:docname="ramtank.svg">
  <defs
     id="defs4247" />
  <sodipodi:namedview
     id="base"
     pagecolor="#ffffff"
     bordercolor="#666666"
     borderopacity="1.0"
     inkscape:pageopacity="0.0"
     inkscape:pageshadow="2"
     inkscape:zoom="5.5"
     inkscape:cx="41.174163"
     inkscape:cy="32"
     inkscape:current-layer="layer1"
     showgrid="true"
     inkscape:document-units="px"
     inkscape:grid-bbox="true"
     inkscape:window-width="1301"
     inkscape:window-height="744"
     inkscape:window-x="65"
     inkscape:window-y="24"
     inkscape:window-maximized="1" />
  <metadata
     id="metadata4250">
    <rdf:RDF>
      <cc:Work
         rdf:about="">
        <dc:format>image/svg+xml</dc:format>
        <dc:type
           rdf:resource="http://purl.org/dc/dcmitype/StillImage" />
        <dc:title />
      </cc:Work>
    </rdf:RDF>
  </metadata>
  <g
     id="layer1"
     inkscape:label="Layer 1"
     inkscape:groupmode="layer"
     transform="translate(0,16)">
    <path
       style="fill:#ffffff;fill-opacity:1;stroke:#000000;stroke-width:1;stroke-linecap:butt;stroke-linejoin:miter;stroke-opacity:1;stroke-miterlimit:4;stroke-dasharray:none"
       d="m 70.937564,23.919727 -19.901398,-0.97876 -2.283768,2.446893 21.858915,0.326254 z"
       id="path4816"
       inkscape:connector-curvature="0"
       sodipodi:nodetypes="ccccc" />
    <path
       style="fill:#ffffff;fill-opacity:1;stroke:#000000;stroke-width:1;stroke-linecap:butt;stroke-linejoin:miter;stroke-opacity:1;stroke-miterlimit:4;stroke-dasharray:none"
       d="m 76.973239,28.161007 -8.645694,-0.32625 1.305011,-5.056916 c 2.663275,0.482348 0.102589,-0.09585 8.156314,0.978761 -0.72187,4.451989 -0.721071,3.45879 -0.815631,4.404405 z"
       id="path4814"
       inkscape:connector-curvature="0"
       sodipodi:nodetypes="ccccc" />
    <path
       style="fill:#ffffff;fill-opacity:1;stroke:#000000;stroke-width:1;stroke-linecap:butt;stroke-linejoin:miter;stroke-opacity:1;stroke-miterlimit:4;stroke-dasharray:none"
       d="m 29.424932,14.997654 0.128953,-3.352782 c 0,0 7.737192,-1.031627 9.284632,1.676389 1.547439,2.70802 0.77372,3.739642 0.77372,3.739642"
       id="path4176"
       inkscape:connector-curvature="0" />
    <path
       style="fill:#ffffff;fill-opacity:1;stroke:#000000;stroke-width:1;stroke-linecap:butt;stroke-linejoin:miter;stroke-opacity:1;stroke-miterlimit:4;stroke-dasharray:none"
       d="m 49.283724,28.021928 c 6.705568,-0.77372 3.094879,-7.350332 1.031626,-6.060802"
       id="path4178"
       inkscape:connector-curvature="0" />
    <path
       style="fill:#ffffff;fill-opacity:1;stroke:#000000;stroke-width:1;stroke-linecap:butt;stroke-linejoin:miter;stroke-opacity:1;stroke-miterlimit:4;stroke-dasharray:none"
       d="m 49.241775,28.324133 c 0,0 4.404409,-5.220041 1.305011,-8.319439 -3.099399,-3.099399 -19.412026,-7.666934 -21.369539,-5.872542 -1.957516,1.794387 -5.056915,7.177553 -5.056915,7.177553 z"
       id="path4810"
       inkscape:connector-curvature="0" />
    <path
       style="fill:#f0cd92;fill-opacity:1;stroke:#000000;stroke-width:1;stroke-linecap:butt;stroke-linejoin:miter;stroke-opacity:1;stroke-miterlimit:4;stroke-dasharray:none"
       d="m 39.127948,18.699687 2.773148,4.73066 7.014428,0.489376 c 0,0 -0.48938,-1.794387 1.305007,-2.446893 1.794391,-0.652505 4.078159,-1.141881 4.078159,-1.141881 0,0 -0.978757,-1.957517 -0.815631,-3.425654 0.163125,-1.468136 2.610018,-3.099398 2.610018,-3.099398 0,0 -1.631262,-1.141882 -2.446893,-2.610018 -0.815631,-1.4681369 -1.794387,-5.0569155 -1.794387,-5.0569155 0,0 -3.425653,0.815631 -5.546295,0.815631 -2.120639,0 -4.893786,-1.7943874 -4.893786,-1.7943874 0,0 -0.163126,2.2837675 -1.468137,2.936273 -1.305011,0.6525018 -3.262524,1.4681365 -3.262524,1.4681365 0,0 1.141882,2.6100184 0.978757,3.9150294 -0.163126,1.305007 -0.326251,2.936273 -0.326251,2.936273 0,0 1.631262,-0.163129 2.446893,0.163126 0.815631,0.32625 2.446893,2.120642 2.446893,2.120642 0,0 1.794387,-3.425654 2.446893,-3.588779 0.652505,-0.163125 0.163125,-4.567535 0.163125,-4.567535 0,0 -2.446893,3.262524 -3.588775,3.425649 -1.141885,0.16313 -0.815631,0.652506 -0.815631,0.652506 0,0 0.326251,-0.489376 1.468133,-1.305007 1.141886,-0.815631 1.468137,-0.815635 1.468137,-0.815635 l 1.305011,-1.468137 0.652505,4.241284 c -1.08277,0.911772 -2.350901,3.252715 -2.867356,3.052301 -4.362682,-1.692983 -3.331441,0.373353 -3.331441,0.373353 z"
       id="path4792"
       inkscape:connector-curvature="0"
       sodipodi:nodetypes="cccscscscscscscscscscscccsc" />
    <path
       style="fill:#eeba7e;fill-opacity:1;stroke:#000000;stroke-width:1;stroke-linecap:butt;stroke-linejoin:miter;stroke-opacity:1;stroke-miterlimit:4;stroke-dasharray:none"
       d="m 42.390472,18.862812 6.525052,4.73066"
       id="path4794"
       inkscape:connector-curvature="0" />
    <path
       style="fill:#eeba7e;fill-opacity:1;stroke:#000000;stroke-width:1;stroke-linecap:butt;stroke-linejoin:miter;stroke-opacity:1;stroke-miterlimit:4;stroke-dasharray:none"
       d="m 45.652996,16.089664 c 2.446897,3.099399 8.645694,4.241285 8.645694,4.241285"
       id="path4796"
       inkscape:connector-curvature="0" />
    <path
       style="fill:#eeba7e;fill-opacity:1;stroke:#000000;stroke-width:1;stroke-linecap:butt;stroke-linejoin:miter;stroke-opacity:1;stroke-miterlimit:4;stroke-dasharray:none"
       d="m 45.326745,13.805897 c 0,0 4.567535,2.610022 10.113826,0"
       id="path4798"
       inkscape:connector-curvature="0" />
    <path
       style="fill:#eeba7e;fill-opacity:1;stroke:#000000;stroke-width:1;stroke-linecap:butt;stroke-linejoin:miter;stroke-opacity:1;stroke-miterlimit:4;stroke-dasharray:none"
       d="M 51.199291,6.4652144 C 48.752398,10.869624 44.67424,12.500886 44.67424,12.500886"
       id="path4800"
       inkscape:connector-curvature="0" />
    <path
       style="fill:#eeba7e;fill-opacity:1;stroke:#000000;stroke-width:1;stroke-linecap:butt;stroke-linejoin:miter;stroke-opacity:1;stroke-miterlimit:4;stroke-dasharray:none"
       d="M 41.330151,5.0786425 C 43.124538,7.36241 43.858609,12.33776 43.858609,12.33776"
       id="path4802"
       inkscape:connector-curvature="0"
       sodipodi:nodetypes="cc" />
    <path
       style="fill:#eeba7e;fill-opacity:1;stroke:#000000;stroke-width:1;stroke-linecap:butt;stroke-linejoin:miter;stroke-opacity:1;stroke-miterlimit:4;stroke-dasharray:none"
       d="m 36.844181,9.8908675 c 2.936273,0 5.383166,3.0178375 5.383166,3.0178375"
       id="path4804"
       inkscape:connector-curvature="0"
       sodipodi:nodetypes="cc" />
    <path
       style="fill:#eeba7e;fill-opacity:1;stroke:#000000;stroke-width:1;stroke-linecap:butt;stroke-linejoin:miter;stroke-opacity:1;stroke-miterlimit:4;stroke-dasharray:none"
       d="m 37.088871,16.25279 c 0,0 1.631262,-3.099399 3.425649,-2.039078"
       id="path4806"
       inkscape:connector-curvature="0" />
    <path
       style="fill:#eeba7e;fill-opacity:1;stroke:#000000;stroke-width:1;stroke-linecap:butt;stroke-linejoin:miter;stroke-opacity:1;stroke-miterlimit:4;stroke-dasharray:none"
       d="M 42.390472,17.720926 C 40.106705,16.089664 41.085461,14.539967 41.085461,14.539967"
       id="path4808"
       inkscape:connector-curvature="0" />
    <path
       style="fill:#ffffff;fill-opacity:1;stroke:#000000;stroke-width:1;stroke-linecap:butt;stroke-linejoin:miter;stroke-opacity:1;stroke-miterlimit:4;stroke-dasharray:none"
       d="M 57.234963,38.601088 50.057406,28.161007 22.48907,21.309705 0.956407,21.635956"
       id="path4812"
       inkscape:connector-curvature="0" />
    <path
       style="fill:#ffffff;fill-opacity:1;stroke:#000000;stroke-width:1;stroke-linecap:butt;stroke-linejoin:miter;stroke-opacity:1;stroke-miterlimit:4;stroke-dasharray:none"
       d="m 26.84587,40.272481 28.240749,1.418483 0.902673,-2.836969 -8.124051,-6.705565 -3.481736,-1.289533 -25.274827,-5.673942 -9.800444,-1.547436 -4.513362,2.836969 -2.06325,5.158129 0.257907,3.997549 4.513362,4.771269 24.372154,1.676389"
       id="path3384"
       inkscape:connector-curvature="0" />
    <path
       style="fill:#ffffff;fill-opacity:1;stroke:#000000;stroke-width:1;stroke-linecap:butt;stroke-linejoin:miter;stroke-opacity:1;stroke-miterlimit:4;stroke-dasharray:none"
       d="M 21.184059,19.515318 20.042177,25.714114 5.850192,23.756598 6.828949,17.394675 z"
       id="path4818"
       inkscape:connector-curvature="0" />
    <path
       sodipodi:type="arc"
       style="fill:#ffffff;fill-opacity:1;stroke:#000000;stroke-opacity:1;stroke-width:2.61792413;stroke-miterlimit:4;stroke-dasharray:none"
       id="path4158"
       sodipodi:cx="625.55365"
       sodipodi:cy="308.65213"
       sodipodi:rx="6.0766144"
       sodipodi:ry="5.4014349"
       d="m 631.63026,308.65213 a 6.0766144,5.4014349 0 1 1 -12.15322,0 6.0766144,5.4014349 0 1 1 12.15322,0 z"
       transform="matrix(-0.38198204,0,0,0.38198204,291.97364,-78.400805)" />
    <path
       sodipodi:type="arc"
       style="fill:#ffffff;fill-opacity:1;stroke:#000000;stroke-opacity:1;stroke-width:2.61792413;stroke-miterlimit:4;stroke-dasharray:none"
       id="path4160"
       sodipodi:cx="642.26434"
       sodipodi:cy="293.46057"
       sodipodi:rx="5.9078193"
       sodipodi:ry="5.0638452"
       d="m 648.17216,293.46057 a 5.9078193,5.0638452 0 1 1 -11.81564,0 5.9078193,5.0638452 0 1 1 11.81564,0 z"
       transform="matrix(-0.38198204,0,0,0.38198204,291.97364,-78.400805)" />
    <path
       sodipodi:type="arc"
       style="fill:#ffffff;fill-opacity:1;stroke:#000000;stroke-opacity:1;stroke-width:2.61792413;stroke-miterlimit:4;stroke-dasharray:none"
       id="path4162"
       sodipodi:cx="673.82898"
       sodipodi:cy="286.87759"
       sodipodi:rx="6.4142041"
       sodipodi:ry="5.5702295"
       d="m 680.24318,286.87759 a 6.4142041,5.5702295 0 1 1 -12.8284,0 6.4142041,5.5702295 0 1 1 12.8284,0 z"
       transform="matrix(-0.38198204,0,0,0.38198204,291.97364,-78.400805)" />
    <path
       sodipodi:type="arc"
       style="fill:#ffffff;fill-opacity:1;stroke:#000000;stroke-opacity:1;stroke-width:2.61792413;stroke-miterlimit:4;stroke-dasharray:none"
       id="path4164"
       sodipodi:cx="665.38928"
       sodipodi:cy="304.76984"
       sodipodi:rx="8.1021519"
       sodipodi:ry="6.9205885"
       d="m 673.49143,304.76984 a 8.1021519,6.9205885 0 1 1 -16.2043,0 8.1021519,6.9205885 0 1 1 16.2043,0 z"
       transform="matrix(-0.38198204,0,0,0.38198204,291.97364,-78.400805)" />
    <path
       sodipodi:type="arc"
       style="fill:#ffffff;fill-opacity:1;stroke:#000000;stroke-opacity:1;stroke-width:2.61792413;stroke-miterlimit:4;stroke-dasharray:none"
       id="path4166"
       sodipodi:cx="707.92554"
       sodipodi:cy="282.48892"
       sodipodi:rx="8.1021519"
       sodipodi:ry="6.5829988"
       d="m 716.02769,282.48892 a 8.1021519,6.5829988 0 1 1 -16.2043,0 8.1021519,6.5829988 0 1 1 16.2043,0 z"
       transform="matrix(-0.38198204,0,0,0.38198204,291.97364,-78.400805)" />
    <path
       sodipodi:type="arc"
       style="fill:#ffffff;fill-opacity:1;stroke:#000000;stroke-opacity:1;stroke-width:2.61792413;stroke-miterlimit:4;stroke-dasharray:none"
       id="path4168"
       sodipodi:cx="703.70569"
       sodipodi:cy="306.79538"
       sodipodi:rx="9.2837162"
       sodipodi:ry="6.245409"
       d="m 712.9894,306.79538 a 9.2837162,6.245409 0 1 1 -18.56743,0 9.2837162,6.245409 0 1 1 18.56743,0 z"
       transform="matrix(-0.38198204,0,0,0.38198204,291.97364,-78.400805)" />
    <path
       sodipodi:type="arc"
       style="fill:#ffffff;fill-opacity:1;stroke:#000000;stroke-opacity:1;stroke-width:2.61792413;stroke-miterlimit:4;stroke-dasharray:none"
       id="path4170"
       sodipodi:cx="741.00934"
       sodipodi:cy="303.41946"
       sodipodi:rx="7.7645626"
       sodipodi:ry="7.595768"
       d="m 748.7739,303.41946 a 7.7645626,7.595768 0 1 1 -15.52912,0 7.7645626,7.595768 0 1 1 15.52912,0 z"
       transform="matrix(-0.38198204,0,0,0.38198204,291.97364,-78.400805)" />
    <path
       sodipodi:type="arc"
       style="fill:#ffffff;fill-opacity:1;stroke:#000000;stroke-opacity:1;stroke-width:2.61792413;stroke-miterlimit:4;stroke-dasharray:none"
       id="path4172"
       sodipodi:cx="749.4491"
       sodipodi:cy="287.21518"
       sodipodi:rx="6.4142041"
       sodipodi:ry="5.5702295"
       d="m 755.8633,287.21518 a 6.4142041,5.5702295 0 1 1 -12.82841,0 6.4142041,5.5702295 0 1 1 12.82841,0 z"
       transform="matrix(-0.38198204,0,0,0.38198204,291.97364,-78.400805)" />
    <path
       sodipodi:type="arc"
       style="fill:#ffffff;fill-opacity:1;stroke:#000000;stroke-opacity:1;stroke-width:2.61792413;stroke-miterlimit:4;stroke-dasharray:none"
       id="path4174"
       sodipodi:cx="737.97107"
       sodipodi:cy="275.23074"
       sodipodi:rx="5.7390246"
       sodipodi:ry="5.4014349"
       d="m 743.71009,275.23074 a 5.7390246,5.4014349 0 1 1 -11.47805,0 5.7390246,5.4014349 0 1 1 11.47805,0 z"
       transform="matrix(-0.38198204,0,0,0.38198204,291.97364,-78.400805)" />
  </g>
</svg>
