<?xml version="1.0" encoding="UTF-8" standalone="no"?>
<!-- Created with Inkscape (http://www.inkscape.org/) -->

<svg
   xmlns:dc="http://purl.org/dc/elements/1.1/"
   xmlns:cc="http://creativecommons.org/ns#"
   xmlns:rdf="http://www.w3.org/1999/02/22-rdf-syntax-ns#"
   xmlns:svg="http://www.w3.org/2000/svg"
   xmlns="http://www.w3.org/2000/svg"
   xmlns:sodipodi="http://sodipodi.sourceforge.net/DTD/sodipodi-0.dtd"
   xmlns:inkscape="http://www.inkscape.org/namespaces/inkscape"
   width="64"
   height="64"
   viewBox="0 0 64.000001 64.000001"
   id="svg6720"
   version="1.1"
   inkscape:version="0.91 r13725"
   sodipodi:docname="aim.svg">
  <defs
     id="defs6722" />
  <sodipodi:namedview
     id="base"
     pagecolor="#ffffff"
     bordercolor="#666666"
     borderopacity="1.0"
     inkscape:pageopacity="0.0"
     inkscape:pageshadow="2"
     inkscape:zoom="7.9195959"
     inkscape:cx="42.41644"
     inkscape:cy="30.50534"
     inkscape:document-units="px"
     inkscape:current-layer="layer1"
     showgrid="false"
     units="px"
     inkscape:window-width="1366"
     inkscape:window-height="719"
     inkscape:window-x="0"
     inkscape:window-y="0"
     inkscape:window-maximized="1" />
  <metadata
     id="metadata6725">
    <rdf:RDF>
      <cc:Work
         rdf:about="">
        <dc:format>image/svg+xml</dc:format>
        <dc:type
           rdf:resource="http://purl.org/dc/dcmitype/StillImage" />
        <dc:title></dc:title>
      </cc:Work>
    </rdf:RDF>
  </metadata>
  <g
     inkscape:label="Layer 1"
     inkscape:groupmode="layer"
     id="layer1"
     transform="translate(0,-988.36216)"
     style="display:inline">
    <path
       style="opacity:1;fill:#888888;fill-opacity:1;fill-rule:evenodd;stroke:none;stroke-width:1;stroke-miterlimit:4;stroke-dasharray:none;stroke-dashoffset:0;stroke-opacity:1"
       d="m 28.097527,1049.1399 0,-2.1376 -0.726047,-0.1417 c -4.635398,-0.9046 -8.561675,-2.7528 -12.046637,-5.6707 -4.307402,-3.6066 -7.3778177,-8.789 -8.5086175,-14.3613 -0.1708897,-0.8421 -0.3107086,-1.6518 -0.3107086,-1.7993 0,-0.2654 -0.029974,-0.2683 -2.7779195,-0.2683 l -2.77791955,0 0,-3.7249 0,-3.7249 2.88268475,0 2.8826848,0 0.222343,-1.0418 c 0.9059199,-4.2444 3.2220586,-8.6023 6.2466146,-11.7531 3.925939,-4.09 8.331593,-6.54326 13.591091,-7.5682 l 1.446877,-0.28196 9.12e-4,-3.31456 9.11e-4,-3.31456 3.724938,0 3.724938,0 0,3.33762 c 0,3.07052 0.01768,3.34266 0.22097,3.40057 0.121534,0.0346 0.561898,0.12874 0.978586,0.20916 1.979368,0.38201 4.0672,1.11303 6.138953,2.14941 4.436387,2.21942 8.064414,5.63942 10.672875,10.06102 1.215296,2.06 2.552451,5.5755 2.882976,7.5797 l 0.0885,0.5367 3.271897,0 3.271896,0 0,3.7249 0,3.7249 -3.144877,0 -3.144878,0 -0.08605,0.6629 c -0.286102,2.2041 -1.109899,4.9276 -2.166669,7.1633 -2.883109,6.0992 -7.893926,10.7019 -14.216004,13.058 -1.252523,0.4668 -4.086556,1.2129 -4.607173,1.2129 l -0.287274,0 0,2.2097 0,2.2097 -3.724937,0 -3.724938,0 0,-2.1376 z m 0,-8.8478 0,-4.5457 3.724938,0 3.724937,0 0,4.5457 c 0,3.3472 0.03837,4.5457 0.145521,4.5457 0.392872,0 3.404269,-0.8195 4.380844,-1.1922 6.62253,-2.5272 11.68259,-7.8469 13.819198,-14.5283 0.393579,-1.2307 0.654229,-2.3464 0.907109,-3.8828 l 0.07794,-0.4735 -3.604391,0 -3.60439,0 0,-3.7249 0,-3.7249 3.409265,0 c 1.875096,0 3.409121,-0.043 3.408947,-0.095 -10e-4,-0.306 -0.687235,-2.5755 -1.083091,-3.5822 -2.408317,-6.1246 -7.225293,-10.8334 -13.468215,-13.1658 -1.181309,-0.4414 -3.581115,-1.08702 -4.041497,-1.08742 -0.204439,-10e-5 -0.22097,0.2313 -0.22097,3.09342 l 0,3.0936 -3.724938,0 -3.724938,0 0,-3.0936 c 0,-2.97332 -0.0095,-3.09362 -0.244004,-3.09362 -0.134203,0 -0.900019,0.1692 -1.701814,0.3759 -7.105237,1.83202 -12.755447,6.68452 -15.588435,13.38752 -0.464247,1.0984 -0.991205,2.7322 -1.2116008,3.7565 l -0.088302,0.4104 3.5455678,0 3.545566,0 0,3.7249 0,3.7249 -3.730659,0 -3.7306598,0 0.077939,0.4735 c 0.6332667,3.8474 2.0431458,7.4097 4.0354548,10.1963 3.240035,4.5318 8.271853,7.8868 13.704407,9.1376 0.588977,0.1356 1.113484,0.2517 1.16557,0.258 0.05209,0.01 0.0947,-2.0341 0.0947,-4.5343 z"
       id="path7361"
       inkscape:connector-curvature="0" />
    <path
       style="opacity:1;fill:#444444;fill-opacity:1;fill-rule:evenodd;stroke:none;stroke-width:0.40000001;stroke-miterlimit:4;stroke-dasharray:none;stroke-dashoffset:0;stroke-opacity:1"
       d="m 44.00743,1024.1695 -1.957171,-1.1967 -5.492704,-0.8598 c -3.020988,-0.4729 -5.719989,-0.8623 -5.997781,-0.8653 -0.47565,-0.01 -8.892041,0.9508 -9.500362,1.079 -0.155495,0.033 -0.993606,0.6867 -1.862468,1.4531 -0.868862,0.7664 -1.579749,1.3645 -1.579749,1.3291 0,-0.091 1.609481,-4.2535 1.661706,-4.2977 0.02361,-0.02 1.094116,-0.2213 2.378904,-0.4473 1.284787,-0.2261 2.401432,-0.4752 2.481433,-0.5538 0.118944,-0.1167 0.755159,-2.0747 1.325431,-4.079 0.101206,-0.3557 0.280283,-0.4809 1.594406,-1.1149 l 1.480394,-0.7143 1.687916,0.2248 1.687915,0.2248 1.015681,1.1427 c 0.558624,0.6285 1.029097,1.1606 1.045495,1.1824 0.05151,0.069 5.919681,-2.5077 6.073867,-2.6665 0.08066,-0.083 0.286859,-0.492 0.458218,-0.9087 l 0.311561,-0.7576 1.562086,-0.9133 c 0.859149,-0.5023 1.59721,-0.9143 1.640137,-0.9155 0.08241,0 2.00539,4.2059 2.00539,4.3886 0,0.058 -0.80153,0.382 -1.781176,0.7188 l -1.781175,0.6124 -0.902042,-0.2109 c -0.496124,-0.116 -0.981788,-0.2102 -1.079255,-0.2094 -0.287067,0 -5.315492,1.7988 -5.315492,1.8987 0,0.1236 1.736753,2.3609 1.929854,2.486 0.08447,0.055 1.761841,0.412 3.727486,0.794 l 3.573901,0.6945 0.827779,1.8065 c 0.455278,0.9936 0.80735,1.8213 0.782382,1.8393 -0.02497,0.018 -0.926123,-0.5058 -2.002567,-1.164 z"
       id="path7363"
       inkscape:connector-curvature="0" />
    <path
       style="opacity:1;fill:#444444;fill-opacity:1;fill-rule:evenodd;stroke:none;stroke-width:0.40000001;stroke-miterlimit:4;stroke-dasharray:none;stroke-dashoffset:0;stroke-opacity:1"
       d="m 21.113216,1028.4668 -1.107534,-1.1127 0.848914,-1.6337 c 0.466902,-0.8985 0.898614,-1.6673 0.959359,-1.7085 0.06075,-0.041 1.712478,-0.148 3.670518,-0.2373 l 3.560072,-0.1623 4.230014,0.3988 c 2.326508,0.2192 4.968688,0.4615 5.871512,0.5383 l 1.641498,0.1396 1.35722,1.338 1.35722,1.3381 -1.102049,1.1072 -1.10205,1.1072 -9.53858,0 -9.53858,0 -1.107534,-1.1127 z"
       id="path7365"
       inkscape:connector-curvature="0" />
  </g>
</svg>
