<?xml version="1.0" encoding="UTF-8" standalone="no"?>
<!-- Created with Inkscape (http://www.inkscape.org/) -->

<svg
   xmlns:dc="http://purl.org/dc/elements/1.1/"
   xmlns:cc="http://creativecommons.org/ns#"
   xmlns:rdf="http://www.w3.org/1999/02/22-rdf-syntax-ns#"
   xmlns:svg="http://www.w3.org/2000/svg"
   xmlns="http://www.w3.org/2000/svg"
   xmlns:sodipodi="http://sodipodi.sourceforge.net/DTD/sodipodi-0.dtd"
   xmlns:inkscape="http://www.inkscape.org/namespaces/inkscape"
   width="100"
   height="100"
   id="svg4726"
   version="1.1"
   inkscape:version="0.48.4 r9939"
   sodipodi:docname="foxtank.svg">
  <defs
     id="defs4728" />
  <sodipodi:namedview
     id="base"
     pagecolor="#ffffff"
     bordercolor="#666666"
     borderopacity="1.0"
     inkscape:pageopacity="0.0"
     inkscape:pageshadow="2"
     inkscape:zoom="5.5"
     inkscape:cx="0.437695"
     inkscape:cy="53.936219"
     inkscape:current-layer="layer1"
     showgrid="true"
     inkscape:document-units="px"
     inkscape:grid-bbox="true"
     inkscape:window-width="1301"
     inkscape:window-height="744"
     inkscape:window-x="65"
     inkscape:window-y="24"
     inkscape:window-maximized="1" />
  <metadata
     id="metadata4731">
    <rdf:RDF>
      <cc:Work
         rdf:about="">
        <dc:format>image/svg+xml</dc:format>
        <dc:type
           rdf:resource="http://purl.org/dc/dcmitype/StillImage" />
        <dc:title />
      </cc:Work>
    </rdf:RDF>
  </metadata>
  <g
     id="layer1"
     inkscape:label="Layer 1"
     inkscape:groupmode="layer"
     transform="translate(0,36)">
    <path
       style="fill:#ffffff;fill-opacity:1;stroke:#c07044;stroke-width:0.58375621px;stroke-linecap:butt;stroke-linejoin:miter;stroke-opacity:1"
       d="m 19.025694,-9.4363962 c 0,0 9.535343,0.6251487 14.278491,2.9967245 7.051111,3.5255535 8.758813,7.17311451 3.70183,14.4547726 -2.993279,4.3100941 0.881392,6.5222721 8.285055,5.8171651 7.403671,-0.705106 0.705115,3.525555 -1.586497,3.525555 -2.29161,0 -14.914943,2.663972 -13.573383,-2.115335 C 32.951637,5.1946599 24.4903,8.1913779 16.91036,12.422047"
       id="path4697"
       inkscape:connector-curvature="0"
       sodipodi:nodetypes="csssssc" />
    <path
       style="fill:#ffffff;fill-opacity:1;stroke:#000000;stroke-width:0.58375621000000000px;stroke-linecap:butt;stroke-linejoin:miter;stroke-opacity:1"
       d="M 85.129839,12.069485 65.563013,13.479708 64.32907,9.9541519 87.597727,8.5439309 z"
       id="path4669"
       inkscape:connector-curvature="0" />
    <path
       style="fill:#ffffff;fill-opacity:1;stroke:#000000;stroke-width:0.58375621000000000px;stroke-linecap:butt;stroke-linejoin:miter;stroke-opacity:1"
       d="m 69.088568,17.534097 c 0,0 -2.115334,-8.6376121 -5.112059,-10.5766631 -2.996716,-1.939058 -14.983601,-1.233943 -16.217543,0.881384 -1.233945,2.115334 -5.464614,8.1087771 -5.288335,11.8106081"
       id="path4663"
       inkscape:connector-curvature="0" />
    <path
       style="fill:#ffffff;fill-opacity:1;stroke:#000000;stroke-width:0.58375621000000000px;stroke-linecap:butt;stroke-linejoin:miter;stroke-opacity:1"
       d="m 79.665227,23.703818 -9.695274,-6.522279 c 0,0 -27.851877,0.352558 -40.367594,3.701832 -12.515722,3.349277 -13.925943,5.288334 -13.925943,5.288334"
       id="path4665"
       inkscape:connector-curvature="0" />
    <path
       style="fill:#ffffff;fill-opacity:1;stroke:#000000;stroke-width:0.58375621000000000px;stroke-linecap:butt;stroke-linejoin:miter;stroke-opacity:1"
       d="m 97.293001,6.6048749 0.176277,6.5222781 -12.339439,0 0.176276,-6.5222781 11.634332,-1.057662 z"
       id="path4667"
       inkscape:connector-curvature="0" />
    <path
       style="fill:#ffffff;fill-opacity:1;stroke:#000000;stroke-width:0.58375621000000000px;stroke-linecap:butt;stroke-linejoin:miter;stroke-opacity:1"
       d="m 15.323859,-9.965226 c 0,0 4.054389,0.5288298 4.583225,1.5864976 0.528831,1.0576655 -1.76278,3.5255547 -1.76278,3.5255547 0,0 5.288328,-1.2339444 5.288328,1.5864961 0,2.82044741 -4.759491,2.99672481 -4.759491,2.99672481 0,0 5.993442,-0.1762774 4.054384,2.99671869 -1.939057,3.173001 -5.112052,2.115334 -5.112052,2.115334 0,0 4.230663,1.586497 2.820442,2.996718 -1.410221,1.410226 -3.701831,0.35256 -3.701831,0.35256 0,0 1.939057,3.3492771 0,4.0543831 0,0 -6.169725,1.762784 -7.05111,-4.5832141 -0.881394,-6.346002 -6.874836,-8.10877709 -6.874836,-8.10877709 0,0 5.272094,-0.74287041 5.640893,-3.70183091 0.910818,-7.3078929 6.874828,-5.6736782 6.874828,-5.8171649 z"
       id="path4673"
       inkscape:connector-curvature="0"
       sodipodi:nodetypes="cscscscsccscsc" />
    <path
       style="fill:#ffffff;fill-opacity:1;stroke:#000000;stroke-width:0.58375621000000000px;stroke-linecap:butt;stroke-linejoin:miter;stroke-opacity:1"
       d="m 68.383455,20.530816 10.752941,7.227388 -0.176276,3.349276 -7.227386,4.7595 c 0,0 -21.858442,-2.467888 -26.970494,-0.705108 -5.112051,1.762774 -26.97049,0.705108 -28.38071,-3.878114 -0.259206,-0.842418 1.586498,-7.403664 16.04127,-8.461331 15.169468,-1.10996 15.336166,-1.410221 24.855161,-1.586497 9.518996,-0.176277 11.105494,-0.705114 11.105494,-0.705114 z"
       id="path4675"
       inkscape:connector-curvature="0"
       sodipodi:nodetypes="ccccssssc" />
    <path
       sodipodi:type="arc"
       style="fill:#ffffff;fill-opacity:1;stroke:#000000;stroke-width:1;stroke-miterlimit:4;stroke-opacity:1;stroke-dasharray:none"
       id="path4677"
       sodipodi:cx="198.09329"
       sodipodi:cy="369.75568"
       sodipodi:rx="5.1335149"
       sodipodi:ry="4.3785863"
       d="m 203.22681,369.75568 a 5.1335149,4.3785863 0 1 1 -10.26703,0 5.1335149,4.3785863 0 1 1 10.26703,0 z"
       transform="matrix(-0.58375622,0,0,0.58375622,182.25887,-192.05521)" />
    <path
       sodipodi:type="arc"
       style="fill:#ffffff;fill-opacity:1;stroke:#000000;stroke-width:1;stroke-miterlimit:4;stroke-opacity:1;stroke-dasharray:none"
       id="path4679"
       sodipodi:cx="181.18288"
       sodipodi:cy="379.56973"
       sodipodi:rx="4.8315434"
       sodipodi:ry="4.2276006"
       d="m 186.01442,379.56973 a 4.8315434,4.2276006 0 1 1 -9.66309,0 4.8315434,4.2276006 0 1 1 9.66309,0 z"
       transform="matrix(-0.58375622,0,0,0.58375622,182.25887,-192.05521)" />
    <path
       sodipodi:type="arc"
       style="fill:#ffffff;fill-opacity:1;stroke:#000000;stroke-width:1;stroke-miterlimit:4;stroke-opacity:1;stroke-dasharray:none"
       id="path4681"
       sodipodi:cx="191.90286"
       sodipodi:cy="385.91113"
       sodipodi:rx="4.6805577"
       sodipodi:ry="3.9256291"
       d="m 196.58342,385.91113 a 4.6805577,3.9256291 0 1 1 -9.36112,0 4.6805577,3.9256291 0 1 1 9.36112,0 z"
       transform="matrix(-0.58375622,0,0,0.58375622,182.25887,-192.05521)" />
    <path
       sodipodi:type="arc"
       style="fill:#ffffff;fill-opacity:1;stroke:#000000;stroke-width:1;stroke-miterlimit:4;stroke-opacity:1;stroke-dasharray:none"
       id="path4683"
       sodipodi:cx="212.28595"
       sodipodi:cy="383.34439"
       sodipodi:rx="5.7374578"
       sodipodi:ry="4.9825292"
       d="m 218.02341,383.34439 a 5.7374578,4.9825292 0 1 1 -11.47492,0 5.7374578,4.9825292 0 1 1 11.47492,0 z"
       transform="matrix(-0.58375622,0,0,0.58375622,182.25887,-192.05521)" />
    <path
       sodipodi:type="arc"
       style="fill:#ffffff;fill-opacity:1;stroke:#000000;stroke-width:1;stroke-miterlimit:4;stroke-opacity:1;stroke-dasharray:none"
       id="path4685"
       sodipodi:cx="224.06284"
       sodipodi:cy="369.3027"
       sodipodi:rx="4.2276006"
       sodipodi:ry="3.3216863"
       d="m 228.29044,369.3027 a 4.2276006,3.3216863 0 1 1 -8.4552,0 4.2276006,3.3216863 0 1 1 8.4552,0 z"
       transform="matrix(-0.58375622,0,0,0.58375622,182.25887,-192.05521)" />
    <path
       sodipodi:type="arc"
       style="fill:#ffffff;fill-opacity:1;stroke:#000000;stroke-width:1;stroke-miterlimit:4;stroke-opacity:1;stroke-dasharray:none"
       id="path4687"
       sodipodi:cx="241.72816"
       sodipodi:cy="372.77539"
       sodipodi:rx="5.586472"
       sodipodi:ry="5.2845006"
       d="m 247.31464,372.77539 a 5.586472,5.2845006 0 1 1 -11.17295,0 5.586472,5.2845006 0 1 1 11.17295,0 z"
       transform="matrix(-0.58375622,0,0,0.58375622,182.25887,-192.05521)" />
    <path
       sodipodi:type="arc"
       style="fill:#ffffff;fill-opacity:1;stroke:#000000;stroke-width:1;stroke-miterlimit:4;stroke-opacity:1;stroke-dasharray:none"
       id="path4689"
       sodipodi:cx="231.91409"
       sodipodi:cy="384.25031"
       sodipodi:rx="5.1335149"
       sodipodi:ry="4.3785863"
       d="m 237.04761,384.25031 a 5.1335149,4.3785863 0 1 1 -10.26703,0 5.1335149,4.3785863 0 1 1 10.26703,0 z"
       transform="matrix(-0.58375622,0,0,0.58375622,182.25887,-192.05521)" />
    <path
       sodipodi:type="arc"
       style="fill:#ffffff;fill-opacity:1;stroke:#000000;stroke-width:1;stroke-miterlimit:4;stroke-opacity:1;stroke-dasharray:none"
       id="path4691"
       sodipodi:cx="256.52475"
       sodipodi:cy="385.45819"
       sodipodi:rx="5.586472"
       sodipodi:ry="4.6805577"
       d="m 262.11122,385.45819 a 5.586472,4.6805577 0 1 1 -11.17294,0 5.586472,4.6805577 0 1 1 11.17294,0 z"
       transform="matrix(-0.58375622,0,0,0.58375622,182.25887,-192.05521)" />
    <path
       sodipodi:type="arc"
       style="fill:#ffffff;fill-opacity:1;stroke:#000000;stroke-width:1;stroke-miterlimit:4;stroke-opacity:1;stroke-dasharray:none"
       id="path4693"
       sodipodi:cx="269.35855"
       sodipodi:cy="373.5303"
       sodipodi:rx="4.529572"
       sodipodi:ry="3.9256291"
       d="m 273.88812,373.5303 a 4.529572,3.9256291 0 1 1 -9.05914,0 4.529572,3.9256291 0 1 1 9.05914,0 z"
       transform="matrix(-0.58375622,0,0,0.58375622,182.25887,-192.05521)" />
    <path
       sodipodi:type="arc"
       style="fill:#ffffff;fill-opacity:1;stroke:#000000;stroke-width:1;stroke-miterlimit:4;stroke-opacity:1;stroke-dasharray:none"
       id="path4695"
       sodipodi:cx="280.22952"
       sodipodi:cy="380.77762"
       sodipodi:rx="3.6236577"
       sodipodi:ry="4.8315434"
       d="m 283.85318,380.77762 a 3.6236577,4.8315434 0 1 1 -7.24731,0 3.6236577,4.8315434 0 1 1 7.24731,0 z"
       transform="matrix(-0.58375622,0,0,0.58375622,182.25887,-192.05521)" />
  </g>
</svg>
