<?xml version="1.0" encoding="UTF-8" standalone="no"?>
<!-- Created with Inkscape (http://www.inkscape.org/) -->

<svg
   xmlns:dc="http://purl.org/dc/elements/1.1/"
   xmlns:cc="http://creativecommons.org/ns#"
   xmlns:rdf="http://www.w3.org/1999/02/22-rdf-syntax-ns#"
   xmlns:svg="http://www.w3.org/2000/svg"
   xmlns="http://www.w3.org/2000/svg"
   xmlns:sodipodi="http://sodipodi.sourceforge.net/DTD/sodipodi-0.dtd"
   xmlns:inkscape="http://www.inkscape.org/namespaces/inkscape"
   width="50"
   height="50"
   viewBox="0 0 50.000001 50.000001"
   id="svg6131"
   version="1.1"
   inkscape:version="0.91 r13725"
   sodipodi:docname="shot.svg">
  <defs
     id="defs6133">
    <inkscape:path-effect
       is_visible="true"
       id="path-effect3271"
       effect="spiro" />
    <inkscape:path-effect
       fuse_tolerance="0"
       vertical_pattern="false"
       prop_units="false"
       tang_offset="0"
       normal_offset="0"
       spacing="0"
       scale_y_rel="false"
       prop_scale="1"
       copytype="single_stretched"
       pattern="m -266.53613,752.3775 0,10 10,-5 z"
       is_visible="true"
       id="path-effect3273"
       effect="skeletal" />
  </defs>
  <sodipodi:namedview
     id="base"
     pagecolor="#ffffff"
     bordercolor="#666666"
     borderopacity="1.0"
     inkscape:pageopacity="0.0"
     inkscape:pageshadow="2"
     inkscape:zoom="3.959798"
     inkscape:cx="-6.1240498"
     inkscape:cy="21.027262"
     inkscape:document-units="px"
     inkscape:current-layer="layer1"
     showgrid="false"
     units="px"
     inkscape:window-width="1366"
     inkscape:window-height="719"
     inkscape:window-x="0"
     inkscape:window-y="0"
     inkscape:window-maximized="1" />
  <metadata
     id="metadata6136">
    <rdf:RDF>
      <cc:Work
         rdf:about="">
        <dc:format>image/svg+xml</dc:format>
        <dc:type
           rdf:resource="http://purl.org/dc/dcmitype/StillImage" />
        <dc:title></dc:title>
      </cc:Work>
    </rdf:RDF>
  </metadata>
  <g
     inkscape:label="Layer 1"
     inkscape:groupmode="layer"
     id="layer1"
     transform="translate(0,-1002.3622)">
    <path
       style="fill:#000000;fill-opacity:1;fill-rule:nonzero;stroke:none"
       d="m 47.004285,1043.2013 -18.993892,-11.4844 1.127166,12.5023 -4.998955,-14.2966 -11.411472,21.8005 6.501502,-20.8128 -11.4572424,6.6094 9.0764274,-8.934 -11.5909413,-2.8549 11.6659313,-0.7318 -7.7684064,-10.1255 12.4475294,8.6278 -1.722292,-9.1695 3.808708,8.3452 8.911952,-19.5389 -6.739552,20.0985 9.076749,-4.705 -4.672515,5.3635 12.305095,2.9738 -12.165956,1.4075 z"
       id="path2985"
       inkscape:connector-curvature="0"
       sodipodi:nodetypes="ccccccccccccccccccccc" />
    <path
       style="fill:#000000;fill-opacity:1;fill-rule:nonzero;stroke:none"
       d="m 33.673512,1028.0852 c 0,5.6532 -4.835362,10.6569 -10.236132,10.2361 -5.636176,-0.4391 -8.63703,-5.0878 -9.562827,-10.152 -1.01665,-5.5611 3.910697,-10.2071 9.562827,-10.3202 8.408315,-0.1684 10.204495,4.5481 10.235971,10.1789"
       id="path2988"
       inkscape:connector-curvature="0"
       sodipodi:nodetypes="csssc" />
    <path
       style="fill:#000000;fill-rule:evenodd;stroke:none"
       d="m 17.24809,1013.6832 c 3.910915,-2.031 8.590818,-2.4334 12.709118,-1.1582 4.118885,1.273 7.663519,4.2178 9.652153,7.9347 0.736352,1.3744 1.271264,2.8511 1.585099,4.3655 l 1.621572,-0.3836 c -0.435145,-1.6509 -1.106896,-3.2312 -1.985645,-4.6803 -2.385966,-3.9307 -6.317859,-6.8128 -10.683662,-7.9137 -6e-6,0 -6e-6,0 -6e-6,0 -4.36639,-1.0988 -9.101257,-0.4005 -12.898629,1.8356 z"
       id="path3008"
       inkscape:connector-curvature="0" />
    <path
       style="fill:#000000;fill-rule:evenodd;stroke:none"
       d="m 12.197695,1032.6948 c 0.409627,2.135 1.531639,4.1501 3.17026,5.6428 1.638975,1.4922 3.781677,2.4501 6.030116,2.6682 0,0 0,0 0,0 0.847576,0.082 1.707549,0.061 2.555808,-0.063 l -0.156071,-0.8892 c -0.76784,0.1589 -1.558378,0.2249 -2.347728,0.1947 0,0 0,0 0,0 -2.089528,-0.079 -4.176847,-0.8565 -5.834357,-2.1983 -1.65786,-1.3416 -2.884764,-3.2474 -3.418028,-5.355 z"
       id="path3014"
       inkscape:connector-curvature="0" />
    <path
       style="fill:#000000;fill-rule:evenodd;stroke:none"
       d="m 29.227098,1044.5099 c -3.85585,1.1097 -8.109222,0.9475 -11.93395,-0.5011 -3.824345,-1.4495 -7.189907,-4.1741 -9.4263494,-7.6904 0,0 0,0 0,0 -0.8427386,-1.3258 -1.5265788,-2.7578 -2.0300122,-4.2571 l 1.5938575,-0.4861 c 0.379626,1.3957 0.9310445,2.7513 1.6398317,4.0246 0,0 0,0 0,0 1.8752164,3.371 4.8972214,6.1553 8.4896394,7.7609 3.592038,1.6065 7.753078,2.0326 11.666983,1.1492 z"
       id="path3014-7"
       inkscape:connector-curvature="0" />
    <path
       inkscape:connector-curvature="0"
       style="fill:#000000;fill-rule:evenodd;stroke:none"
       d="m 17.953384,1016.498 c 3.035497,-1.1439 6.66786,-1.3706 9.864322,-0.6524 3.196922,0.717 5.948126,2.3757 7.491625,4.4694 0.571528,0.7741 0.986707,1.6058 1.230294,2.4589 l 1.2586,-0.2162 c -0.337742,-0.9298 -0.859129,-1.8199 -1.541179,-2.6362 -1.851892,-2.214 -4.903678,-3.8372 -8.292247,-4.4574 0,0 0,0 0,0 -3.389021,-0.6189 -7.064046,-0.2256 -10.011415,1.0339 z"
       id="path3008-9" />
  </g>
</svg>
